# File created by Blade
# Date/Time:  Tue Apr 07 20:35:22 2015
#---------------------------------------------------------
:version 1.10
:name HOM
:units
  mass 1.0
  length 1.000000
  angle deg
:documentation
     Acclaim Skeleton File
:root
   axis xyz
   order TX TY TZ RX RY RZ
   position 0.000000 0.000000 0.000000
   orientation 0 0 0
:bonedata
   begin
      id 1
      name Spine_dum
      direction 0.000000 1.000000 0.000000
      length 4.885285
      axis 0.0 0.0 0.0 xyz
   end
   begin
      id 2
      name LeftUpLeg_dum
      direction 1.000000 0.000000 0.000000
      length 2.672193
      axis 0.0 0.0 0.0 xyz
   end
   begin
      id 3
      name RightUpLeg_dum
      direction -1.000000 0.000000 0.000000
      length 2.672193
      axis 0.0 0.0 0.0 xyz
   end
   begin
      id 4
      name Spine
      direction 0.000000 1.000000 0.000000
      length 0.000000
      axis 0.0 0.0 0.0 xyz
      dof rx ry rz
   end
   begin
      id 5
      name Spine_dum1
      direction 0.000000 1.000000 0.000000
      length 16.494159
      axis 0.0 0.0 0.0 xyz
   end
   begin
      id 6
      name Spine_dum2
      direction 0.000000 1.000000 0.000000
      length 10.663448
      axis 0.0 0.0 0.0 xyz
   end
   begin
      id 7
      name Spine_dum3
      direction 0.000000 1.000000 0.000000
      length 10.663448
      axis 0.0 0.0 0.0 xyz
   end
   begin
      id 8
      name Head
      direction 0.000000 1.000000 0.000000
      length 4.527550
      axis 0.0 0.0 0.0 xyz
      dof rx ry rz
   end
   begin
      id 9
      name LeftShoulder
      direction 1.000000 0.000000 0.000000
      length 7.531907
      axis 0.0 0.0 -90.0 xyz
      dof rx ry rz
   end
   begin
      id 10
      name LeftArm
      direction 1.000000 0.000000 0.000000
      length 10.229199
      axis 0.0 0.0 -90.0 xyz
      dof rx ry rz
   end
   begin
      id 11
      name LeftForeArm
      direction 1.000000 0.000000 0.000000
      length 8.673495
      axis 0.0 0.0 -90.0 xyz
      dof ry rz rx
   end
   begin
      id 12
      name LeftHand
      direction 0.000000 0.000000 0.000000
      length 0.000000
      axis 0.0 0.0 -90.0 xyz
      dof rx ry rz
   end
   begin
      id 13
      name LeftHand_dum1
      direction 0.000000 0.000000 0.000000
      length 0.000000
      axis 0.0 0.0 -90.0 xyz
   end
   begin
      id 14
      name LeftHand_dum2
      direction 1.000000 0.000000 0.000000
      length 3.937000
      axis 0.0 0.0 -90.0 xyz
   end
   begin
      id 15
      name LeftHandThumb1
      direction 0.000000 0.000000 1.000000
      length 3.937000
      axis 0.0 0.0 -90.0 xyz
      dof rx rz ry
   end
   begin
      id 16
      name RightShoulder
      direction -1.000000 0.000000 0.000000
      length 7.531907
      axis 0.0 0.0 90.0 xyz
      dof rx ry rz
   end
   begin
      id 17
      name RightArm
      direction -1.000000 0.000000 0.000000
      length 10.229199
      axis 0.0 0.0 90.0 xyz
      dof rx ry rz
   end
   begin
      id 18
      name RightForeArm
      direction -1.000000 0.000000 0.000000
      length 8.673495
      axis 0.0 0.0 90.0 xyz
      dof ry rz rx
   end
   begin
      id 19
      name RightHand
      direction 0.000000 0.000000 0.000000
      length 0.000000
      axis 0.0 0.0 90.0 xyz
      dof rx ry rz
   end
   begin
      id 20
      name RightHand_dum1
      direction 0.000000 0.000000 0.000000
      length 0.000000
      axis 0.0 0.0 90.0 xyz
   end
   begin
      id 21
      name RightHand_dum2
      direction -1.000000 0.000000 0.000000
      length 3.937000
      axis 0.0 0.0 90.0 xyz
   end
   begin
      id 22
      name RightHandThumb1
      direction 0.000000 0.000000 1.000000
      length 3.937000
      axis 0.0 0.0 90.0 xyz
      dof rx rz ry
   end
   begin
      id 23
      name LeftUpLeg
      direction 0.000000 -1.000000 0.000000
      length 16.263388
      axis 0.0 0.0 0.0 xyz
      dof rx ry rz
   end
   begin
      id 24
      name LeftLeg
      direction 0.000000 -1.000000 0.000000
      length 14.328163
      axis 0.0 0.0 0.0 xyz
      dof rx ry rz
   end
   begin
      id 25
      name LeftFoot
      direction 0.000000 -0.258819 0.965926
      length 5.031290
      axis 15.0 0.0 0.0 xyz
      dof rx ry rz
   end
   begin
      id 26
      name LeftToeBase
      direction 0.000000 0.000000 1.000000
      length 2.952750
      axis 0.0 0.0 0.0 xyz
      dof rx ry rz
   end
   begin
      id 27
      name RightUpLeg
      direction 0.000000 -1.000000 0.000000
      length 16.263388
      axis 0.0 0.0 0.0 xyz
      dof rx ry rz
   end
   begin
      id 28
      name RightLeg
      direction 0.000000 -1.000000 0.000000
      length 14.328163
      axis 0.0 0.0 0.0 xyz
      dof rx ry rz
   end
   begin
      id 29
      name RightFoot
      direction 0.000000 -0.258819 0.965926
      length 5.031290
      axis 15.0 0.0 0.0 xyz
      dof rx ry rz
   end
   begin
      id 30
      name RightToeBase
      direction 0.000000 0.000000 1.000000
      length 2.952750
      axis 0.0 0.0 0.0 xyz
      dof rx ry rz
   end
:hierarchy
   begin
      root Spine_dum LeftUpLeg_dum RightUpLeg_dum
      Spine_dum Spine
      LeftUpLeg_dum LeftUpLeg
      RightUpLeg_dum RightUpLeg
      Spine Spine_dum1 Spine_dum2 Spine_dum3
      Spine_dum1 Head
      Spine_dum2 LeftShoulder
      Spine_dum3 RightShoulder
      LeftShoulder LeftArm
      LeftArm LeftForeArm
      LeftForeArm LeftHand
      LeftHand LeftHand_dum1 LeftHand_dum2
      LeftHand_dum1 LeftHandThumb1
      RightShoulder RightArm
      RightArm RightForeArm
      RightForeArm RightHand
      RightHand RightHand_dum1 RightHand_dum2
      RightHand_dum1 RightHandThumb1
      LeftUpLeg LeftLeg
      LeftLeg LeftFoot
      LeftFoot LeftToeBase
      RightUpLeg RightLeg
      RightLeg RightFoot
      RightFoot RightToeBase
   end

# File created by Blade
# Date/Time:  Tue Apr 07 20:35:32 2015
# Frame Rate: 120.000 fps
#------------------------------------------------------
:FULLY-SPECIFIED
:DEGREES
155
root 0.116974 32.911375 -2.168009 12.554909 -5.413703 -2.647770
Spine -7.909630 -2.661624 -2.506346
Head 14.537977 -5.574608 5.455639
LeftShoulder -20.695048 45.871450 9.044047
LeftArm 47.534884 -8.991418 -90.713215
LeftForeArm -3.444657 -0.000000 13.323826
LeftHand 8.349084 -0.000000 5.087084
LeftHandThumb1 -26.253704 0.000000 33.147579
RightShoulder -6.751050 -7.494872 -16.047265
RightArm 11.751901 -6.959692 89.503814
RightForeArm -4.704213 -0.000000 18.428804
RightHand 8.058449 -0.000000 -0.666021
RightHandThumb1 -24.326973 -0.000000 -32.862282
LeftUpLeg -12.631215 -5.244396 1.077219
LeftLeg 6.655530 -0.000000 -0.000000
LeftFoot -12.717550 5.882909 -20.623436
LeftToeBase 0.220860 -0.000000 -0.000000
RightUpLeg -11.864352 -4.460427 3.588933
RightLeg 2.604536 -0.000000 -0.000000
RightFoot -6.497325 -2.856404 7.166266
RightToeBase 0.755878 -0.000000 -0.000000
156
root 0.125752 32.908979 -2.193826 12.551004 -5.359759 -2.738864
Spine -7.849960 -2.851953 -2.486458
Head 14.432671 -5.618637 5.609472
LeftShoulder -20.708386 45.887449 9.110952
LeftArm 47.728108 -9.490814 -90.462893
LeftForeArm -3.516123 -0.000000 13.404237
LeftHand 8.459974 0.000000 5.382543
LeftHandThumb1 -26.253704 0.000000 33.147579
RightShoulder -6.764175 -7.428250 -16.026435
RightArm 11.791380 -6.642937 89.265913
RightForeArm -4.443698 0.000000 18.639086
RightHand 8.050680 -0.000000 -0.618495
RightHandThumb1 -24.326973 -0.000000 -32.862282
LeftUpLeg -12.626417 -4.882606 1.027871
LeftLeg 6.559362 -0.000000 -0.000000
LeftFoot -12.589491 6.061362 -20.147721
LeftToeBase 0.261728 -0.000000 -0.000000
RightUpLeg -12.082348 -4.396898 3.667770
RightLeg 3.010274 -0.000000 -0.000000
RightFoot -6.713741 -2.959261 7.241844
RightToeBase 0.832124 -0.000000 -0.000000
157
root 0.137820 32.907887 -2.218934 12.566091 -5.293026 -2.802495
Spine -7.816160 -3.057740 -2.492445
Head 14.331385 -5.672435 5.772919
LeftShoulder -20.746329 45.912163 9.178922
LeftArm 47.950142 -9.976070 -90.266183
LeftForeArm -3.559369 0.000000 13.467462
LeftHand 8.440548 -0.000000 5.689947
LeftHandThumb1 -26.253704 0.000000 33.147579
RightShoulder -6.771041 -7.443894 -15.967726
RightArm 11.890286 -6.346838 88.964103
RightForeArm -4.203058 -0.000000 18.876280
RightHand 8.056041 -0.000000 -0.642686
RightHandThumb1 -24.326973 -0.000000 -32.862282
LeftUpLeg -12.658710 -4.589783 0.990546
LeftLeg 6.490195 -0.000000 -0.000000
LeftFoot -12.414560 6.062907 -19.809579
LeftToeBase 0.224694 -0.000000 -0.000000
RightUpLeg -12.354606 -4.415608 3.729856
RightLeg 3.481937 -0.000000 -0.000000
RightFoot -6.939560 -3.000269 7.304347
RightToeBase 0.918349 -0.000000 -0.000000
158
root 0.149321 32.908554 -2.246219 12.592483 -5.236251 -2.862703
Spine -7.795852 -3.247021 -2.520080
Head 14.257492 -5.731660 5.981666
LeftShoulder -20.683138 45.881264 9.356383
LeftArm 48.076138 -10.458627 -90.094228
LeftForeArm -3.715036 0.000000 13.557479
LeftHand 8.585107 0.000000 5.917029
LeftHandThumb1 -26.253704 0.000000 33.147579
RightShoulder -6.748088 -7.418130 -15.894033
RightArm 11.928021 -5.920042 88.683685
RightForeArm -3.891164 0.000000 19.120096
RightHand 8.104423 -0.000000 -0.479817
RightHandThumb1 -24.326973 -0.000000 -32.862282
LeftUpLeg -12.710919 -4.287994 0.957774
LeftLeg 6.431361 -0.000000 -0.000000
LeftFoot -12.216988 6.014615 -19.494201
LeftToeBase 0.130418 -0.000000 -0.000000
RightUpLeg -12.617555 -4.304560 3.766442
RightLeg 3.903432 -0.000000 -0.000000
RightFoot -7.138190 -3.153519 7.402620
RightToeBase 0.980509 -0.000000 -0.000000
159
root 0.164490 32.911310 -2.273141 12.633941 -5.180864 -2.893762
Spine -7.792720 -3.388212 -2.582885
Head 14.168531 -5.845130 6.182002
LeftShoulder -20.534711 45.826874 9.601670
LeftArm 48.176477 -10.934024 -89.948899
LeftForeArm -3.836082 -0.000000 13.671145
LeftHand 8.640579 0.000000 6.293052
LeftHandThumb1 -26.253704 0.000000 33.147579
RightShoulder -6.801561 -7.392340 -15.780737
RightArm 11.950166 -5.572719 88.355759
RightForeArm -3.494548 -0.000000 19.389907
RightHand 8.105929 -0.000000 -0.425397
RightHandThumb1 -24.326973 -0.000000 -32.862282
LeftUpLeg -12.756941 -4.114805 0.945942
LeftLeg 6.311854 -0.000000 -0.000000
LeftFoot -11.984051 5.925357 -19.414726
LeftToeBase 0.025500 -0.000000 -0.000000
RightUpLeg -12.931827 -4.235527 3.778031
RightLeg 4.390358 -0.000000 -0.000000
RightFoot -7.339646 -3.283236 7.545339
RightToeBase 1.049834 -0.000000 -0.000000
160
root 0.185133 32.914461 -2.296722 12.655505 -5.134517 -2.878977
Spine -7.783378 -3.558812 -2.689627
Head 14.113240 -5.936442 6.400475
LeftShoulder -20.517571 45.844297 9.761127
LeftArm 48.401588 -11.337337 -89.817116
LeftForeArm -4.071790 -0.000000 13.705874
LeftHand 8.808724 -0.000000 6.220054
LeftHandThumb1 -26.253704 0.000000 33.147579
RightShoulder -6.808782 -7.420551 -15.672214
RightArm 12.042707 -5.167259 88.054704
RightForeArm -3.186375 -0.000000 19.618628
RightHand 8.110811 -0.000000 -0.449491
RightHandThumb1 -24.326973 -0.000000 -32.862282
LeftUpLeg -12.732663 -4.266202 0.943109
LeftLeg 6.084127 -0.000000 -0.000000
LeftFoot -11.767046 6.072467 -19.465741
LeftToeBase -0.059327 -0.000000 0.000000
RightUpLeg -13.236356 -4.130104 3.715002
RightLeg 4.903229 -0.000000 -0.000000
RightFoot -7.574592 -3.424819 7.750901
RightToeBase 1.139119 -0.000000 -0.000000
161
root 0.201535 32.917896 -2.319378 12.675366 -5.078995 -2.895089
Spine -7.773361 -3.685215 -2.780862
Head 14.053016 -6.083449 6.639484
LeftShoulder -20.390130 45.816383 10.029747
LeftArm 48.555732 -11.753303 -89.739545
LeftForeArm -4.231055 0.000000 13.808115
LeftHand 8.900022 -0.000000 6.265374
LeftHandThumb1 -26.253704 0.000000 33.147579
RightShoulder -6.839123 -7.346211 -15.583777
RightArm 12.004083 -4.726469 87.792846
RightForeArm -2.933150 0.000000 19.863105
RightHand 8.112681 -0.000000 -0.358542
RightHandThumb1 -24.326973 -0.000000 -32.862282
LeftUpLeg -12.682580 -4.383457 0.955110
LeftLeg 5.813028 -0.000000 -0.000000
LeftFoot -11.500811 6.295338 -19.255562
LeftToeBase -0.324438 -0.000000 0.000000
RightUpLeg -13.562700 -4.061331 3.699718
RightLeg 5.474615 -0.000000 -0.000000
RightFoot -7.827977 -3.530399 7.960128
RightToeBase 1.238374 -0.000000 -0.000000
162
root 0.214964 32.921327 -2.342490 12.686002 -4.993316 -2.917332
Spine -7.744857 -3.840843 -2.853979
Head 13.980542 -6.197075 6.839582
LeftShoulder -20.248917 45.740884 10.307451
LeftArm 48.662191 -12.140438 -89.613616
LeftForeArm -4.382558 -0.000000 13.915378
LeftHand 8.877705 0.000000 6.511576
LeftHandThumb1 -26.253704 0.000000 33.147579
RightShoulder -6.860621 -7.324494 -15.522149
RightArm 12.005714 -4.300325 87.593199
RightForeArm -2.520201 -0.000000 20.135362
RightHand 8.114713 -0.000000 -0.280804
RightHandThumb1 -24.326973 -0.000000 -32.862282
LeftUpLeg -12.636142 -4.444286 0.964731
LeftLeg 5.554529 -0.000000 -0.000000
LeftFoot -11.160677 6.489031 -18.908078
LeftToeBase -0.738821 -0.000000 0.000000
RightUpLeg -13.862581 -3.836632 3.660710
RightLeg 6.025042 -0.000000 -0.000000
RightFoot -8.093635 -3.801780 8.260504
RightToeBase 1.343696 -0.000000 -0.000000
163
root 0.228148 32.925380 -2.363911 12.683804 -4.894114 -2.924575
Spine -7.716733 -3.958843 -2.963405
Head 13.939899 -6.369698 7.077901
LeftShoulder -20.082435 45.694688 10.623287
LeftArm 48.840300 -12.456198 -89.456728
LeftForeArm -4.582592 0.000000 13.961943
LeftHand 8.985605 -0.000000 6.519116
LeftHandThumb1 -26.253704 0.000000 33.147579
RightShoulder -6.907538 -7.297832 -15.445518
RightArm 12.014441 -3.844486 87.387100
RightForeArm -2.454441 -0.000000 20.342349
RightHand 8.070900 -0.000000 -0.208402
RightHandThumb1 -24.326973 -0.000000 -32.862282
LeftUpLeg -12.672051 -4.431627 0.937198
LeftLeg 5.502309 -0.000000 -0.000000
LeftFoot -10.908899 6.597450 -18.535765
LeftToeBase -1.021980 -0.000000 0.000000
RightUpLeg -14.218553 -3.783893 3.639121
RightLeg 6.718601 -0.000000 -0.000000
RightFoot -8.381849 -3.935074 8.559326
RightToeBase 1.405978 -0.000000 -0.000000
164
root 0.239025 32.929764 -2.386972 12.690437 -4.800663 -2.937870
Spine -7.693793 -4.096216 -3.067843
Head 13.898687 -6.460180 7.318312
LeftShoulder -19.894900 45.555871 10.985211
LeftArm 48.901612 -12.775331 -89.325833
LeftForeArm -4.832021 0.000000 14.059050
LeftHand 9.005562 -0.000000 6.381448
LeftHandThumb1 -26.253704 0.000000 33.147579
RightShoulder -6.917408 -7.294419 -15.391251
RightArm 12.035923 -3.407225 87.216772
RightForeArm -2.526927 0.000000 20.596229
RightHand 8.080148 -0.000000 -0.334954
RightHandThumb1 -24.326973 -0.000000 -32.862282
LeftUpLeg -12.725370 -4.409582 0.926323
LeftLeg 5.471268 -0.000000 -0.000000
LeftFoot -10.645040 6.650634 -18.191211
LeftToeBase -1.431958 -0.000000 0.000000
RightUpLeg -14.592705 -3.785214 3.630449
RightLeg 7.419383 -0.000000 -0.000000
RightFoot -8.655964 -3.971179 8.900144
RightToeBase 1.455497 -0.000000 -0.000000
165
root 0.249688 32.932330 -2.408434 12.693677 -4.707777 -2.980406
Spine -7.665842 -4.163925 -3.135825
Head 13.845461 -6.639274 7.504563
LeftShoulder -19.714738 45.472265 11.305345
LeftArm 49.083178 -13.019468 -89.148181
LeftForeArm -5.029432 -0.000000 14.099958
LeftHand 9.112605 -0.000000 6.303250
LeftHandThumb1 -26.253704 0.000000 33.147579
RightShoulder -6.955972 -7.246736 -15.381652
RightArm 11.997756 -2.960137 87.089071
RightForeArm -2.660564 -0.000000 20.814120
RightHand 8.109382 -0.000000 -0.343570
RightHandThumb1 -24.326973 -0.000000 -32.862282
LeftUpLeg -12.756731 -4.307037 0.935279
LeftLeg 5.433150 -0.000000 -0.000000
LeftFoot -10.428492 6.540542 -17.911614
LeftToeBase -1.825456 -0.000000 0.000000
RightUpLeg -14.973614 -3.781902 3.651485
RightLeg 8.155651 -0.000000 -0.000000
RightFoot -8.937895 -4.032734 9.270518
RightToeBase 1.571506 -0.000000 -0.000000
